<svg xmlns="http://www.w3.org/2000/svg" viewBox="0 0 1024 1024" width="100%" height="100%">
<defs>
<linearGradient id="gfp" x1="0" y1="0" x2="0.35" y2="1">
<stop offset="0%" stop-color="#4fd8cc"/><stop offset="48%" stop-color="#0c8686"/><stop offset="100%" stop-color="#06474a"/></linearGradient>
<linearGradient id="glare" x1="0" y1="0" x2="0" y2="1">
<stop offset="0%" stop-color="#fff" stop-opacity=".22"/><stop offset="42%" stop-color="#fff" stop-opacity="0"/></linearGradient>
<linearGradient id="glove" x1="0" y1="0" x2="0.3" y2="1">
<stop offset="0%" stop-color="#f0a35a"/><stop offset="100%" stop-color="#c97a2e"/></linearGradient>
<linearGradient id="phot" x1="0" y1="0" x2="0.3" y2="1">
<stop offset="0%" stop-color="#ffffff"/><stop offset="100%" stop-color="#e2e9ee"/></linearGradient>
</defs>
<rect width="1024" height="1024" fill="url(#gfp)"/><rect width="1024" height="1024" fill="url(#glare)"/>
<ellipse cx="512" cy="898" rx="330" ry="24" fill="#032b2c" opacity=".5"/>
<g transform="rotate(-7 400 430)">
<rect x="212" y="220" width="380" height="420" rx="22" fill="url(#phot)"/>
<rect x="236" y="244" width="332" height="290" rx="12" fill="#2c3843"/>
<rect x="300" y="292" width="160" height="200" rx="12" fill="#5c6a76"/>
<rect x="322" y="316" width="116" height="52" rx="8" fill="#8b98a3"/>
<circle cx="360" cy="428" r="24" fill="#39434c"/>
<rect x="404" y="410" width="36" height="36" rx="8" fill="#39434c"/>
<rect x="252" y="556" width="180" height="20" rx="10" fill="#93a3b0"/>
</g>
<g transform="rotate(5 620 500)">
<rect x="428" y="300" width="380" height="420" rx="22" fill="url(#phot)"/>
<rect x="452" y="324" width="332" height="290" rx="12" fill="#1b2a33"/>
<rect x="516" y="368" width="160" height="200" rx="12" fill="#2f7d8c"/>
<rect x="538" y="392" width="116" height="52" rx="8" fill="#63b7c9"/>
<circle cx="576" cy="504" r="24" fill="#123c46"/>
<rect x="620" y="486" width="36" height="36" rx="8" fill="#123c46"/>
<rect x="468" y="636" width="220" height="20" rx="10" fill="#93a3b0"/>
</g>
<rect x="420" y="292.5" width="64" height="15" rx="7.5" fill="#ffffff" opacity=".9"/>
<rect x="412.5" y="300" width="15" height="64" rx="7.5" fill="#ffffff" opacity=".9"/>
<rect x="786" y="292.5" width="64" height="15" rx="7.5" fill="#ffffff" opacity=".9"/>
<rect x="842.5" y="300" width="15" height="64" rx="7.5" fill="#ffffff" opacity=".9"/>
<rect x="420" y="752.5" width="64" height="15" rx="7.5" fill="#ffffff" opacity=".9"/>
<rect x="412.5" y="696" width="15" height="64" rx="7.5" fill="#ffffff" opacity=".9"/>
<rect x="786" y="752.5" width="64" height="15" rx="7.5" fill="#ffffff" opacity=".9"/>
<rect x="842.5" y="696" width="15" height="64" rx="7.5" fill="#ffffff" opacity=".9"/>
<rect x="140" y="700" width="330" height="104" rx="28" fill="#ffffff"/>
<path d="M196 788 C172 758 172 736 196 736 C220 736 220 758 196 788 Z" fill="#e4832b" transform="translate(0,-18)"/>
<circle cx="196" cy="742" r="10" fill="#ffffff"/>
<rect x="238" y="726" width="150" height="20" rx="10" fill="#2c3843"/>
<rect x="238" y="758" width="196" height="16" rx="8" fill="#93a3b0"/>
<circle cx="806" cy="782" r="92" fill="#ffffff"/>
<circle cx="806" cy="782" r="74" fill="#39a85a"/>
<path d="M768 782 L796 812 L848 750" fill="none" stroke="#ffffff" stroke-width="17" stroke-linecap="round" stroke-linejoin="round"/>
</svg>