<svg xmlns="http://www.w3.org/2000/svg" viewBox="0 0 1024 1024" width="100%" height="100%">
<defs>
<linearGradient id="gcc2" x1="0" y1="0" x2="0.35" y2="1">
<stop offset="0%" stop-color="#7d8fe0"/><stop offset="48%" stop-color="#3d4fb0"/><stop offset="100%" stop-color="#131c55"/></linearGradient>
<linearGradient id="glare" x1="0" y1="0" x2="0" y2="1">
<stop offset="0%" stop-color="#fff" stop-opacity=".22"/><stop offset="42%" stop-color="#fff" stop-opacity="0"/></linearGradient>
<linearGradient id="hullTop" x1="0" y1="0" x2="0" y2="1">
<stop offset="0%" stop-color="#ffffff"/><stop offset="100%" stop-color="#d5dee6"/></linearGradient>
<linearGradient id="hullBot" x1="0" y1="0" x2="0" y2="1">
<stop offset="0%" stop-color="#b3c0cc"/><stop offset="100%" stop-color="#77879a"/></linearGradient>
<linearGradient id="dome" x1="0" y1="0" x2="0" y2="1">
<stop offset="0%" stop-color="#e8f4fb" stop-opacity=".95"/><stop offset="100%" stop-color="#7fb2d6" stop-opacity=".75"/></linearGradient>
<linearGradient id="beam" x1="0" y1="0" x2="0" y2="1">
<stop offset="0%" stop-color="#ffd9a0" stop-opacity=".9"/>
<stop offset="70%" stop-color="#ffd9a0" stop-opacity=".28"/>
<stop offset="100%" stop-color="#ffd9a0" stop-opacity="0"/></linearGradient>
<linearGradient id="beamEdge" x1="0" y1="0" x2="0" y2="1">
<stop offset="0%" stop-color="#ffe9c8" stop-opacity=".9"/><stop offset="100%" stop-color="#ffe9c8" stop-opacity="0"/></linearGradient>
</defs>
<rect width="1024" height="1024" fill="url(#gcc2)"/><rect width="1024" height="1024" fill="url(#glare)"/>
<path d="M160 157 L163.64 166.36 L173 170 L163.64 173.64 L160 183 L156.36 173.64 L147 170 L156.36 166.36 Z" fill="#ffffff" opacity="0.9"/>
<path d="M852 139 L855.08 146.92 L863 150 L855.08 153.08 L852 161 L848.92 153.08 L841 150 L848.92 146.92 Z" fill="#ffffff" opacity="0.85"/>
<circle cx="300" cy="110" r="3.3" fill="#ffffff" opacity="0.5"/>
<circle cx="740" cy="240" r="3.3" fill="#ffffff" opacity="0.5"/>
<circle cx="906" cy="330" r="3.3" fill="#ffffff" opacity="0.45"/>
<circle cx="122" cy="340" r="3.3" fill="#ffffff" opacity="0.45"/>
<circle cx="566" cy="104" r="3.9" fill="#ffffff" opacity="0.6"/>
<ellipse cx="512" cy="900" rx="400" ry="28" fill="#0a1140" opacity=".7"/>
<path d="M462 500 L562 500 L668 856 L356 856 Z" fill="url(#beam)"/>
<path d="M462 500 L356 856" stroke="url(#beamEdge)" stroke-width="6" fill="none"/>
<path d="M562 500 L668 856" stroke="url(#beamEdge)" stroke-width="6" fill="none"/>
<ellipse cx="512" cy="856" rx="156" ry="20" fill="#ffd9a0" opacity=".35"/>
<rect x="344" y="742" width="336" height="146" rx="8" fill="#232c40"/>
<path d="M324 748 L512 664 L700 748 Z" fill="#39434c"/>
<rect x="324" y="740" width="376" height="12" rx="6" fill="#4d5a65"/>
<rect x="478" y="798" width="68" height="90" rx="6" fill="#e4832b"/>
<rect x="502" y="836" width="10" height="18" rx="4" fill="#a04d15"/>
<rect x="376" y="782" width="58" height="48" rx="6" fill="#ffd98c"/>
<rect x="590" y="782" width="58" height="48" rx="6" fill="#ffd98c"/>
<path d="M376 806 h58 M405 782 v48 M590 806 h58 M619 782 v48" stroke="#232c40" stroke-width="5"/>
<path d="M264 464 Q264 420 512 420 Q760 420 760 464 Q760 512 512 512 Q264 512 264 464 Z" fill="url(#hullBot)"/>
<path d="M280 452 Q280 402 512 402 Q744 402 744 452 L744 458 Q744 470 700 472 L324 472 Q280 470 280 458 Z" fill="url(#hullTop)"/>
<path d="M282 458 Q512 486 742 458" fill="none" stroke="#8b9aa8" stroke-width="4" opacity=".55"/>
<circle cx="326" cy="476" r="14" fill="#e4832b"/>
<circle cx="326" cy="476" r="14" fill="none" stroke="#7c3f10" stroke-width="3" opacity=".5"/>
<circle cx="419" cy="488" r="14" fill="#e4832b"/>
<circle cx="419" cy="488" r="14" fill="none" stroke="#7c3f10" stroke-width="3" opacity=".5"/>
<circle cx="512" cy="492" r="14" fill="#e4832b"/>
<circle cx="512" cy="492" r="14" fill="none" stroke="#7c3f10" stroke-width="3" opacity=".5"/>
<circle cx="605" cy="488" r="14" fill="#e4832b"/>
<circle cx="605" cy="488" r="14" fill="none" stroke="#7c3f10" stroke-width="3" opacity=".5"/>
<circle cx="698" cy="476" r="14" fill="#e4832b"/>
<circle cx="698" cy="476" r="14" fill="none" stroke="#7c3f10" stroke-width="3" opacity=".5"/>
<path d="M408 414 Q408 312 512 312 Q616 312 616 414 Z" fill="url(#dome)"/>
<path d="M408 414 Q408 312 512 312 Q616 312 616 414" fill="none" stroke="#5f93b8" stroke-width="5" opacity=".6"/>
<path d="M430 392 Q440 336 496 326" fill="none" stroke="#ffffff" stroke-width="9" stroke-linecap="round" opacity=".85"/>
<line x1="512" y1="312" x2="512" y2="272" stroke="#c3ced8" stroke-width="8" stroke-linecap="round"/>
<circle cx="512" cy="260" r="12" fill="#e4832b"/>
<circle cx="512" cy="260" r="12" fill="none" stroke="#7c3f10" stroke-width="3" opacity=".5"/>
</svg>