<svg xmlns="http://www.w3.org/2000/svg" viewBox="0 0 1024 1024" width="100%" height="100%">
<defs>
<linearGradient id="tile" x1="0" y1="0" x2="0.35" y2="1">
<stop offset="0%" stop-color="#63b7c9"/><stop offset="48%" stop-color="#2f7d8c"/><stop offset="100%" stop-color="#123c46"/></linearGradient>
<linearGradient id="glare" x1="0" y1="0" x2="0" y2="1">
<stop offset="0%" stop-color="#fff" stop-opacity=".22"/><stop offset="42%" stop-color="#fff" stop-opacity="0"/></linearGradient>
<linearGradient id="keyg" x1="0" y1="0" x2="0.4" y2="1">
<stop offset="0%" stop-color="#ffffff"/><stop offset="70%" stop-color="#e8eef2"/><stop offset="100%" stop-color="#c9d6dd"/></linearGradient>
<linearGradient id="tagg" x1="0" y1="0" x2="0.4" y2="1">
<stop offset="0%" stop-color="#f09040"/><stop offset="100%" stop-color="#cf6d16"/></linearGradient>
</defs>
<rect width="1024" height="1024" fill="url(#tile)"/><rect width="1024" height="1024" fill="url(#glare)"/>
<ellipse cx="500" cy="880" rx="330" ry="26" fill="#0a2830" opacity=".4"/>
<circle cx="452" cy="222" r="60" fill="none" stroke="#dfe9ee" stroke-width="24"/>
<g transform="rotate(-34 512 480)">
<path d="M472 380 L552 380 L552 806 Q552 836 522 840 L502 840 Q472 836 472 806 Z" fill="url(#keyg)"/>
<path d="M552 648 L648 648 Q666 648 666 666 L666 682 Q666 700 648 700 L552 700 Z" fill="url(#keyg)"/>
<path d="M552 736 L692 736 Q710 736 710 754 L710 770 Q710 788 692 788 L552 788 Z" fill="url(#keyg)"/>
<circle cx="512" cy="268" r="158" fill="url(#keyg)"/>
<circle cx="512" cy="268" r="64" fill="#123c46"/>
<circle cx="512" cy="268" r="64" fill="none" stroke="#2f7d8c" stroke-width="10"/>
<rect x="502" y="392" width="20" height="400" rx="10" fill="#c9d6dd" opacity=".8"/>
</g>
<path d="M398 260 A60 60 0 0 1 400 180" fill="none" stroke="#dfe9ee" stroke-width="24" stroke-linecap="round"/>

<g transform="translate(-236,-8) rotate(14 790 320)">
<rect x="678" y="212" width="228" height="164" rx="26" fill="url(#tagg)"/>
<rect x="678" y="212" width="228" height="164" rx="26" fill="none" stroke="#ffffff" stroke-width="9" opacity=".35"/>
<circle cx="712" cy="246" r="14" fill="#123c46"/>
<path d="M742 316 L792 276 L842 316 Z" fill="#ffffff"/>
<rect x="756" y="314" width="72" height="44" rx="7" fill="#ffffff"/>
<rect x="782" y="330" width="20" height="28" rx="4" fill="#cf6d16"/>
</g>
</svg>