<svg xmlns="http://www.w3.org/2000/svg" viewBox="0 0 1024 1024" width="100%" height="100%">
<defs>
<linearGradient id="gsb" x1="0" y1="0" x2="0.35" y2="1">
<stop offset="0%" stop-color="#7cc6f5"/><stop offset="48%" stop-color="#2b7fc4"/><stop offset="100%" stop-color="#0d3a63"/></linearGradient>
<linearGradient id="glare" x1="0" y1="0" x2="0" y2="1">
<stop offset="0%" stop-color="#fff" stop-opacity=".22"/><stop offset="42%" stop-color="#fff" stop-opacity="0"/></linearGradient>
<linearGradient id="band" x1="0" y1="0" x2="0.3" y2="1">
<stop offset="0%" stop-color="#3a4750"/><stop offset="100%" stop-color="#1c252c"/></linearGradient>
<linearGradient id="cup" x1="0" y1="0" x2="0.3" y2="1">
<stop offset="0%" stop-color="#2c3843"/><stop offset="100%" stop-color="#141c23"/></linearGradient>
</defs>
<rect width="1024" height="1024" fill="url(#gsb)"/><rect width="1024" height="1024" fill="url(#glare)"/>
<path d="M720 250 A70 70 0 0 1 860 250" fill="none" stroke="#ffffff" stroke-width="17" stroke-linecap="round" opacity="0.85" transform="rotate(38 790 250)"/>
<path d="M675 250 A115 115 0 0 1 905 250" fill="none" stroke="#ffffff" stroke-width="17" stroke-linecap="round" opacity="0.55" transform="rotate(38 790 250)"/>
<path d="M630 250 A160 160 0 0 1 950 250" fill="none" stroke="#ffffff" stroke-width="17" stroke-linecap="round" opacity="0.3" transform="rotate(38 790 250)"/>
<ellipse cx="502" cy="880" rx="330" ry="26" fill="#061a2e" opacity=".45"/>
<path d="M232 560 L232 470 C232 320 352 232 502 232 C652 232 772 320 772 470 L772 560" fill="none" stroke="url(#band)" stroke-width="64" stroke-linecap="round"/>
<path d="M258 540 L258 470 C258 336 368 258 502 258" fill="none" stroke="#4d5a65" stroke-width="14" stroke-linecap="round" opacity=".6"/>
<rect x="164" y="520" width="136" height="220" rx="58" fill="url(#cup)"/>
<rect x="186" y="546" width="60" height="168" rx="30" fill="#e4832b"/>
<rect x="724" y="520" width="136" height="220" rx="58" fill="url(#cup)"/>
<rect x="778" y="546" width="60" height="168" rx="30" fill="#e4832b"/>
<path d="M244 730 C270 810 360 856 470 856" fill="none" stroke="url(#band)" stroke-width="38" stroke-linecap="round"/>
<rect x="450" y="822" width="120" height="68" rx="34" fill="url(#cup)"/>
<rect x="472" y="844" width="76" height="24" rx="12" fill="#e4832b"/>
<rect x="600" y="620" width="272" height="112" rx="30" fill="#ffffff"/>
<circle cx="650" cy="676" r="20" fill="#39a85a"/>
<rect x="692" y="665" width="12" height="22" rx="6" fill="#2b7fc4"/>
<rect x="718" y="656" width="12" height="40" rx="6" fill="#2b7fc4"/>
<rect x="744" y="647" width="12" height="58" rx="6" fill="#2b7fc4"/>
<rect x="770" y="659" width="12" height="34" rx="6" fill="#2b7fc4"/>
<rect x="796" y="651" width="12" height="50" rx="6" fill="#2b7fc4"/>
<rect x="822" y="663" width="12" height="26" rx="6" fill="#2b7fc4"/>
</svg>