<svg xmlns="http://www.w3.org/2000/svg" viewBox="0 0 1024 1024" width="100%" height="100%">
<defs>
<linearGradient id="gct" x1="0" y1="0" x2="0.35" y2="1">
<stop offset="0%" stop-color="#f2a07a"/><stop offset="48%" stop-color="#e2673f"/><stop offset="100%" stop-color="#9c3a14"/></linearGradient>
<linearGradient id="glare" x1="0" y1="0" x2="0" y2="1">
<stop offset="0%" stop-color="#fff" stop-opacity=".22"/><stop offset="42%" stop-color="#fff" stop-opacity="0"/></linearGradient>
<linearGradient id="cardg" x1="0" y1="0" x2="0.3" y2="1">
<stop offset="0%" stop-color="#ffffff"/><stop offset="100%" stop-color="#e2e9ee"/></linearGradient>
<linearGradient id="shirt" x1="0" y1="0" x2="0.3" y2="1">
<stop offset="0%" stop-color="#3d93a4"/><stop offset="100%" stop-color="#256d7c"/></linearGradient>
</defs>
<rect width="1024" height="1024" fill="url(#gct)"/><rect width="1024" height="1024" fill="url(#glare)"/>
<rect x="176" y="176" width="700" height="480" rx="34" fill="#c9713f" opacity=".55" transform="rotate(-4 526 416)"/>
<ellipse cx="512" cy="880" rx="330" ry="24" fill="#5e2005" opacity=".4"/>
<rect x="132" y="240" width="760" height="520" rx="36" fill="url(#cardg)"/>
<rect x="132" y="240" width="760" height="86" rx="36" fill="#2c3843"/>
<rect x="132" y="290" width="760" height="36" fill="#2c3843"/>
<circle cx="196" cy="283" r="13" fill="#e4832b"/>
<rect x="228" y="272" width="220" height="22" rx="11" fill="#93a3b0"/>
<circle cx="316" cy="512" r="118" fill="#f4f7f9"/>
<circle cx="316" cy="512" r="118" fill="none" stroke="#d3dee4" stroke-width="8"/>
<clipPath id="pc"><circle cx="316" cy="512" r="112"/></clipPath>
<g clip-path="url(#pc)">
<rect x="204" y="400" width="224" height="224" fill="#d5dfe6"/>
<circle cx="316" cy="482" r="46" fill="#5c6a76"/>
<path d="M316 624 C240 624 228 566 244 546 Q316 518 388 546 C404 566 392 624 316 624 Z" fill="#5c6a76"/>
</g>
<rect x="472" y="424" width="300" height="28" rx="14" fill="#2c3843"/>
<rect x="472" y="474" width="230" height="18" rx="9" fill="#93a3b0"/>
<circle cx="488" cy="548" r="17" fill="#e4832b"/>
<path d="M481 542 q-3 10 6 13 q9 3 13 -4" fill="none" stroke="#fff" stroke-width="5" stroke-linecap="round"/>
<rect x="520" y="538" width="210" height="18" rx="9" fill="#5c6a76"/>
<path d="M472 606 L490 590 L508 606 Z" fill="#e4832b"/>
<rect x="478" y="605" width="24" height="16" rx="3" fill="#e4832b"/>
<rect x="520" y="600" width="250" height="18" rx="9" fill="#5c6a76"/>
<rect x="472" y="658" width="180" height="44" rx="22" fill="#2f7d8c"/>
<circle cx="498" cy="680" r="9" fill="#ffffff"/>
<rect x="516" y="672" width="110" height="16" rx="8" fill="#ffffff" opacity=".85"/>
</svg>